<svg xmlns="http://www.w3.org/2000/svg" width="640" height="360" viewBox="0 0 640 360">
  <defs>
    <linearGradient id="bg" x1="0%" y1="0%" x2="0%" y2="100%">
      <stop offset="0%" stop-color="#070908"/>
      <stop offset="45%" stop-color="#0a100e"/>
      <stop offset="100%" stop-color="#080c0b"/>
    </linearGradient>
    <pattern id="grid" width="24" height="24" patternUnits="userSpaceOnUse">
      <path d="M 24 0 L 0 0 0 24" fill="none" stroke="rgba(94,234,212,0.08)" stroke-width="0.8"/>
    </pattern>
  </defs>
  <rect width="640" height="360" fill="url(#bg)"/>
  <rect width="640" height="360" fill="url(#grid)"/>
  <!-- terminal panel -->
  <rect x="48" y="52" width="544" height="256" fill="rgba(13,16,16,0.92)" stroke="#2a3d36" stroke-width="2"/>
  <rect x="48" y="52" width="544" height="36" fill="rgba(20,48,40,0.65)" stroke="#2a3d36" stroke-width="0"/>
  <text x="60" y="76" fill="rgba(94,234,212,0.85)" font-family="ui-monospace, Consolas, monospace" font-size="11" letter-spacing="0.28em">SESSION // DRG</text>
  <text x="60" y="118" fill="#f0fdf9" font-family="ui-monospace, Consolas, monospace" font-size="22" font-weight="500" letter-spacing="0.02em">Find the Dragonball</text>
  <rect x="60" y="136" width="200" height="22" fill="none" stroke="#2a3d36" stroke-width="1.2"/>
  <text x="68" y="152" fill="rgba(141,168,154,0.95)" font-family="ui-monospace, Consolas, monospace" font-size="10" letter-spacing="0.12em">01 ACCESS</text>
  <rect x="268" y="136" width="60" height="22" fill="rgba(10,20,18,0.9)" stroke="#2a3d36" stroke-width="1.2"/>
  <text x="284" y="152" fill="rgba(90,111,102,0.9)" font-family="ui-monospace, Consolas, monospace" font-size="10">02 LOG</text>
  <text x="60" y="198" fill="rgba(184,207,196,0.92)" font-family="system-ui, sans-serif" font-size="13">ę«n'f’xžWfO`UD</text>
  <rect x="60" y="212" width="320" height="36" fill="rgba(15,22,20,0.95)" stroke="#3d5248" stroke-width="1.5"/>
  <text x="72" y="235" fill="rgba(111,138,125,0.95)" font-family="ui-monospace, Consolas, monospace" font-size="12">'f’xžżĂ×WfU‹	</text>
  <text x="60" y="278" fill="rgba(94,234,212,0.75)" font-family="ui-monospace, Consolas, monospace" font-size="10" letter-spacing="0.15em">PASSCODE</text>
  <rect x="60" y="286" width="200" height="28" fill="#050706" stroke="#2a3d36" stroke-width="1.2"/>
  <line x1="420" y1="88" x2="536" y2="88" stroke="rgba(94,234,212,0.25)" stroke-width="1"/>
  <circle cx="556" cy="88" r="3" fill="rgba(94,234,212,0.4)"/>
</svg>
